<svg width="205" height="106" viewBox="0 0 205 106" fill="none" xmlns="http://www.w3.org/2000/svg">
<g clip-path="url(#clip0_153_258)">
<path d="M102.347 108H51.9844C51.7371 107.999 51.5001 107.892 51.3253 107.701C51.1504 107.511 51.0521 107.252 51.0518 106.982V60.0032C51.0521 59.7335 51.1504 59.4749 51.3253 59.2842C51.5001 59.0935 51.7371 58.9862 51.9844 58.9858H102.347C102.594 58.9862 102.831 59.0935 103.006 59.2842C103.181 59.4749 103.279 59.7335 103.279 60.0032V106.982C103.279 107.252 103.181 107.511 103.006 107.701C102.831 107.892 102.594 107.999 102.347 108V108ZM51.9844 59.392C51.8362 59.3923 51.6942 59.4567 51.5894 59.571C51.4846 59.6853 51.4256 59.8402 51.4253 60.0018V106.982C51.4256 107.144 51.4846 107.299 51.5894 107.413C51.6942 107.527 51.8362 107.592 51.9844 107.592H102.347C102.495 107.592 102.637 107.527 102.742 107.413C102.847 107.299 102.906 107.144 102.906 106.982V60.0032C102.906 59.8415 102.847 59.6866 102.742 59.5723C102.637 59.458 102.495 59.3937 102.347 59.3933L51.9844 59.392Z" fill="#FDFDFD"/>
<path d="M59.8093 103.79C61.9074 103.79 63.6083 101.935 63.6083 99.6461C63.6083 97.3573 61.9074 95.502 59.8093 95.502C57.7111 95.502 56.0103 97.3573 56.0103 99.6461C56.0103 101.935 57.7111 103.79 59.8093 103.79Z" fill="#FDFDFD"/>
<path d="M68.5833 96.8828C68.4154 96.8828 68.2544 96.9556 68.1356 97.0851C68.0169 97.2146 67.9502 97.3903 67.9502 97.5735C67.9502 97.7566 68.0169 97.9323 68.1356 98.0618C68.2544 98.1914 68.4154 98.2641 68.5833 98.2641H98.4332C98.6011 98.2641 98.7622 98.1914 98.8809 98.0618C98.9997 97.9323 99.0664 97.7566 99.0664 97.5735C99.0664 97.3903 98.9997 97.2146 98.8809 97.0851C98.7622 96.9556 98.6011 96.8828 98.4332 96.8828H68.5833Z" fill="#FDFDFD"/>
<path d="M68.5833 101.028C68.4154 101.028 68.2544 101.101 68.1356 101.23C68.0169 101.36 67.9502 101.535 67.9502 101.718C67.9502 101.902 68.0169 102.077 68.1356 102.207C68.2544 102.336 68.4154 102.409 68.5833 102.409H81.4279C81.5958 102.409 81.7568 102.336 81.8756 102.207C81.9943 102.077 82.061 101.902 82.061 101.718C82.061 101.535 81.9943 101.36 81.8756 101.23C81.7568 101.101 81.5958 101.028 81.4279 101.028H68.5833Z" fill="#FDFDFD"/>
<path d="M114.312 91.6139H63.9492C63.7019 91.6136 63.4649 91.5064 63.2901 91.3157C63.1152 91.1249 63.0169 90.8664 63.0166 90.5966V66.487C63.0169 66.2173 63.1152 65.9587 63.2901 65.768C63.4649 65.5773 63.7019 65.47 63.9492 65.4697H114.312C114.559 65.47 114.796 65.5773 114.971 65.768C115.146 65.9587 115.244 66.2173 115.244 66.487V90.5966C115.244 90.8664 115.146 91.1249 114.971 91.3157C114.796 91.5064 114.559 91.6136 114.312 91.6139Z" fill="#FDFDFD"/>
<path d="M74.2054 73.8735C74.0375 73.8735 73.8764 73.9463 73.7577 74.0758C73.639 74.2054 73.5723 74.381 73.5723 74.5642C73.5723 74.7474 73.639 74.923 73.7577 75.0526C73.8764 75.1821 74.0375 75.2549 74.2054 75.2549H104.055C104.223 75.2549 104.384 75.1821 104.503 75.0526C104.622 74.923 104.689 74.7474 104.689 74.5642C104.689 74.381 104.622 74.2054 104.503 74.0758C104.384 73.9463 104.223 73.8735 104.055 73.8735H74.2054Z" fill="#3F3D56"/>
<path d="M74.2054 77.8755C74.0375 77.8755 73.8764 77.9483 73.7577 78.0778C73.639 78.2073 73.5723 78.383 73.5723 78.5662C73.5723 78.7493 73.639 78.925 73.7577 79.0545C73.8764 79.184 74.0375 79.2568 74.2054 79.2568H104.055C104.223 79.2568 104.384 79.184 104.503 79.0545C104.622 78.925 104.689 78.7493 104.689 78.5662C104.689 78.383 104.622 78.2073 104.503 78.0778C104.384 77.9483 104.223 77.8755 104.055 77.8755H74.2054Z" fill="#3F3D56"/>
<path d="M74.2054 81.8296C74.0375 81.8296 73.8764 81.9024 73.7577 82.0319C73.639 82.1614 73.5723 82.3371 73.5723 82.5203C73.5723 82.7034 73.639 82.8791 73.7577 83.0086C73.8764 83.1381 74.0375 83.2109 74.2054 83.2109H87.0499C87.2179 83.2109 87.3789 83.1381 87.4976 83.0086C87.6164 82.8791 87.6831 82.7034 87.6831 82.5203C87.6831 82.3371 87.6164 82.1614 87.4976 82.0319C87.3789 81.9024 87.2179 81.8296 87.0499 81.8296H74.2054Z" fill="#3F3D56"/>
<path d="M171.007 107.539H120.645C120.397 107.538 120.16 107.431 119.985 107.24C119.811 107.049 119.712 106.791 119.712 106.521V92.8933C119.712 92.6236 119.811 92.365 119.985 92.1743C120.16 91.9836 120.397 91.8763 120.645 91.876H171.007C171.254 91.8763 171.491 91.9836 171.666 92.1743C171.841 92.365 171.939 92.6236 171.94 92.8933V106.521C171.939 106.791 171.841 107.049 171.666 107.24C171.491 107.431 171.254 107.538 171.007 107.539ZM120.645 92.2821C120.496 92.2824 120.354 92.3468 120.25 92.4611C120.145 92.5754 120.086 92.7303 120.085 92.892V106.52C120.086 106.681 120.145 106.836 120.25 106.951C120.354 107.065 120.496 107.129 120.645 107.13H171.007C171.155 107.129 171.297 107.065 171.402 106.951C171.507 106.836 171.566 106.681 171.566 106.52V92.8933C171.566 92.7316 171.507 92.5767 171.402 92.4624C171.297 92.3481 171.155 92.2837 171.007 92.2834L120.645 92.2821Z" fill="#FDFDFD"/>
<path d="M128.469 103.328C130.568 103.328 132.268 101.473 132.268 99.1842C132.268 96.8954 130.568 95.04 128.469 95.04C126.371 95.04 124.67 96.8954 124.67 99.1842C124.67 101.473 126.371 103.328 128.469 103.328Z" fill="#FDFDFD"/>
<path d="M137.243 96.4219C137.076 96.4219 136.915 96.4946 136.796 96.6242C136.677 96.7537 136.61 96.9294 136.61 97.1125C136.61 97.2957 136.677 97.4714 136.796 97.6009C136.915 97.7304 137.076 97.8032 137.243 97.8032H167.093C167.261 97.8032 167.422 97.7304 167.541 97.6009C167.66 97.4714 167.727 97.2957 167.727 97.1125C167.727 96.9294 167.66 96.7537 167.541 96.6242C167.422 96.4946 167.261 96.4219 167.093 96.4219H137.243Z" fill="#FDFDFD"/>
<path d="M137.243 100.566C137.076 100.566 136.915 100.639 136.796 100.768C136.677 100.898 136.61 101.073 136.61 101.257C136.61 101.44 136.677 101.615 136.796 101.745C136.915 101.874 137.076 101.947 137.243 101.947H150.088C150.256 101.947 150.417 101.874 150.536 101.745C150.654 101.615 150.721 101.44 150.721 101.257C150.721 101.073 150.654 100.898 150.536 100.768C150.417 100.639 150.256 100.566 150.088 100.566H137.243Z" fill="#FDFDFD"/>
<path d="M162.83 91.5302L116.136 68.0218C115.907 67.9061 115.722 67.7056 115.623 67.4642C115.524 67.2229 115.518 66.9604 115.606 66.7343L120.094 55.3185C120.183 55.0927 120.359 54.922 120.584 54.8438C120.809 54.7657 121.064 54.7865 121.293 54.9016L167.987 78.41C168.216 78.5257 168.401 78.7263 168.5 78.9676C168.599 79.209 168.606 79.4715 168.517 79.6975L164.03 91.1132C163.941 91.339 163.764 91.5096 163.539 91.5878C163.314 91.6659 163.059 91.6453 162.83 91.5302ZM121.16 55.2418C121.022 55.173 120.869 55.1606 120.734 55.2074C120.6 55.2543 120.494 55.3565 120.44 55.4917L115.953 66.9074C115.9 67.0429 115.904 67.2003 115.963 67.3449C116.023 67.4895 116.133 67.6098 116.271 67.6792L162.965 91.1876C163.102 91.2565 163.255 91.2689 163.39 91.2221C163.525 91.1753 163.63 91.073 163.684 90.9377L168.171 79.5232C168.224 79.3876 168.22 79.2303 168.16 79.0857C168.101 78.941 167.99 78.8208 167.853 78.7514L121.16 55.2418Z" fill="#FDFDFD"/>
<path d="M124.991 68.658C126.989 69.6802 129.236 68.8866 130.01 66.8853C130.783 64.8841 129.791 62.4331 127.794 61.4109C125.796 60.3887 123.549 61.1824 122.775 63.1836C122.001 65.1848 122.993 67.6358 124.991 68.658Z" fill="#FDFDFD"/>
<path d="M135.378 66.4077C135.224 66.3323 135.053 66.3186 134.902 66.3696C134.751 66.4205 134.633 66.532 134.573 66.6794C134.513 66.8268 134.517 66.9981 134.584 67.1557C134.65 67.3132 134.774 67.4441 134.928 67.5194L162.274 80.9167C162.428 80.992 162.599 81.0057 162.75 80.9548C162.901 80.9038 163.019 80.7924 163.079 80.645C163.138 80.4975 163.134 80.3262 163.068 80.1687C163.001 80.0112 162.877 79.8803 162.724 79.8049L135.378 66.4077Z" fill="#FDFDFD"/>
<path d="M133.835 70.1989C133.68 70.1227 133.509 70.1089 133.357 70.1604C133.206 70.2119 133.087 70.3246 133.027 70.4737C132.968 70.6228 132.972 70.796 133.038 70.9553C133.105 71.1146 133.229 71.2469 133.384 71.3231L145.182 77.1517C145.336 77.2279 145.508 77.2417 145.659 77.1902C145.811 77.1387 145.929 77.026 145.989 76.8769C146.049 76.7278 146.045 76.5546 145.978 76.3953C145.911 76.236 145.787 76.1037 145.633 76.0275L133.835 70.1989Z" fill="#FDFDFD"/>
<path d="M124.316 52.9035L73.9301 58.4543C73.6828 58.4812 73.4387 58.4059 73.2514 58.245C73.0641 58.084 72.949 57.8506 72.9311 57.5957L72.0474 44.7181C72.0302 44.4632 72.1119 44.2081 72.2744 44.0086C72.437 43.8091 72.6671 43.6816 72.9145 43.654L123.301 38.1033C123.548 38.0764 123.792 38.1517 123.979 38.3126C124.167 38.4736 124.282 38.707 124.3 38.9618L125.183 51.8393C125.201 52.0942 125.119 52.3494 124.956 52.5489C124.794 52.7484 124.564 52.8759 124.316 52.9035ZM72.9408 44.0378C72.7926 44.0545 72.6547 44.131 72.5573 44.2505C72.4599 44.3701 72.4109 44.5229 72.421 44.6757L73.3047 57.5531C73.3155 57.7058 73.3846 57.8457 73.4969 57.9422C73.6091 58.0386 73.7554 58.0838 73.9036 58.0678L124.29 52.5171C124.438 52.5005 124.576 52.424 124.673 52.3044C124.771 52.1849 124.82 52.032 124.81 51.8792L123.926 39.003C123.915 38.8503 123.846 38.7104 123.734 38.6139C123.622 38.5175 123.475 38.4723 123.327 38.4884L72.9408 44.0378Z" fill="#FDFDFD"/>
<path d="M81.5587 53.4591C83.681 53.2198 85.28 51.2104 85.1301 48.971C84.9801 46.7316 83.1381 45.1101 81.0157 45.3494C78.8934 45.5887 77.2944 47.5981 77.4443 49.8375C77.5943 52.077 79.4363 53.6984 81.5587 53.4591Z" fill="#FDFDFD"/>
<path d="M89.8063 46.0006C89.639 46.0175 89.4832 46.0965 89.3732 46.2202C89.2633 46.3439 89.2082 46.5021 89.22 46.6601C89.2319 46.8181 89.3098 46.9628 89.4365 47.0626C89.5632 47.1623 89.7285 47.2088 89.8958 47.1919L119.646 44.182C119.813 44.1651 119.969 44.0861 120.079 43.9624C120.189 43.8387 120.244 43.6805 120.232 43.5225C120.221 43.3645 120.143 43.2198 120.016 43.12C119.889 43.0203 119.724 42.9738 119.557 42.9907L89.8063 46.0006Z" fill="#FDFDFD"/>
<path d="M90.1369 50.0797C89.9694 50.0973 89.8135 50.1794 89.7034 50.3079C89.5934 50.4364 89.5382 50.6008 89.5501 50.765C89.562 50.9291 89.6399 51.0796 89.7667 51.1832C89.8935 51.2869 90.0589 51.3352 90.2264 51.3177L103.038 49.9732C103.206 49.9556 103.362 49.8735 103.472 49.745C103.582 49.6165 103.637 49.4521 103.625 49.2879C103.613 49.1238 103.535 48.9733 103.409 48.8697C103.282 48.766 103.116 48.7177 102.949 48.7352L90.1369 50.0797Z" fill="#FDFDFD"/>
</g>
<defs>
<clipPath id="clip0_153_258">
<rect width="205" height="106" fill="white"/>
</clipPath>
</defs>
</svg>
