<svg width="693" height="501" viewBox="0 0 693 501" fill="none" xmlns="http://www.w3.org/2000/svg">
<path d="M510.052 478.42L497.805 478.942L489.769 436.087L507.845 435.316L510.052 478.42Z" fill="#FFB6B6"/>
<path d="M533.45 194.122C543.477 193.536 553.557 195.236 563.596 195.444L635.272 195.888C635.289 221.423 637.216 320.849 634.73 338.726L631.775 339C597.347 338.51 562.919 338.458 528.49 338.846C528.53 320.671 527.062 206.04 529.024 196.233L533.45 194.122Z" fill="#E6E7E8"/>
<path d="M414 196.046C449.56 193.93 485.423 195.569 521 196.237C518.711 243.105 519.93 291.702 520.151 338.819C485.121 343.457 449.531 339.188 414.417 339.616C414.958 291.731 416.008 243.822 414 196.046Z" fill="#E6E7E8"/>
<path d="M433.001 268H616.999C618.591 268 620.117 267.684 621.242 267.121C622.368 266.559 623 265.796 623 265C623 264.204 622.368 263.441 621.242 262.879C620.117 262.316 618.591 262 616.999 262H433.001C431.409 262 429.883 262.316 428.758 262.879C427.632 263.441 427 264.204 427 265C427 265.796 427.632 266.559 428.758 267.121C429.883 267.684 431.409 268 433.001 268Z" fill="#FDF8F8"/>
<path d="M433.878 312H614.122C615.681 312 617.176 311.684 618.278 311.121C619.381 310.559 620 309.796 620 309C620 308.204 619.381 307.441 618.278 306.879C617.176 306.316 615.681 306 614.122 306H433.878C432.319 306 430.824 306.316 429.722 306.879C428.619 307.441 428 308.204 428 309C428 309.796 428.619 310.559 429.722 311.121C430.824 311.684 432.319 312 433.878 312Z" fill="#FDF8F8"/>
<path d="M442.491 301.438C436.697 301.438 432 297.152 432 291.866C432 286.579 436.697 282.293 442.491 282.293C448.285 282.293 452.981 286.579 452.981 291.866C452.981 297.152 448.285 301.438 442.491 301.438Z" fill="#FDFDFD"/>
<path d="M435.156 202.44C438.891 202.44 442.598 202.03 446.307 202C447.229 201.993 448.393 202.132 449.016 202.961C450.666 205.154 449.099 211.354 448.706 214C450.44 214.78 452.489 215.679 453.806 217.171C454.525 217.985 455.026 218.845 455.28 219.947C456.39 224.756 455.887 230.577 455.882 235.514C455.888 242.962 455.852 250.409 455.774 257.856L450.327 257.801C443.263 257.792 436.199 257.858 429.136 258C429.207 250.801 429.214 243.603 429.157 236.404C429.118 231.655 428.681 226.431 429.461 221.76C429.772 219.895 430.321 218.511 431.23 216.902C432.839 215.759 434.364 214.985 436.178 214.322C435.871 210.353 435.265 206.428 435.156 202.44Z" fill="#FDFDFD"/>
<path d="M552.491 301.438C546.697 301.438 542 297.152 542 291.866C542 286.579 546.697 282.293 552.491 282.293C558.285 282.293 562.981 286.579 562.981 291.866C562.981 297.152 558.285 301.438 552.491 301.438Z" fill="#FDFDFD"/>
<path d="M545.156 202.44C548.891 202.44 552.598 202.03 556.307 202C557.229 201.993 558.393 202.132 559.016 202.961C560.666 205.154 559.099 211.354 558.706 214C560.44 214.78 562.489 215.679 563.806 217.171C564.525 217.985 565.026 218.845 565.28 219.947C566.39 224.756 565.887 230.577 565.882 235.514C565.888 242.962 565.852 250.409 565.774 257.856L560.327 257.801C553.263 257.792 546.199 257.858 539.136 258C539.207 250.801 539.214 243.603 539.157 236.404C539.118 231.655 538.681 226.431 539.461 221.76C539.772 219.895 540.321 218.511 541.23 216.902C542.839 215.759 544.364 214.985 546.178 214.322C545.871 210.353 545.265 206.428 545.156 202.44Z" fill="#FDFDFD"/>
<path d="M502 396C502 396.131 502.009 396.262 502.027 396.383C502.045 396.505 502.072 396.615 502.106 396.708C502.14 396.801 502.18 396.875 502.224 396.925C502.268 396.975 502.315 397 502.363 397H635.637C635.734 397 635.826 396.895 635.894 396.707C635.962 396.52 636 396.265 636 396C636 395.735 635.962 395.48 635.894 395.293C635.826 395.105 635.734 395 635.637 395H502.363C502.315 395 502.268 395.025 502.224 395.075C502.18 395.125 502.14 395.199 502.106 395.292C502.072 395.385 502.045 395.495 502.027 395.617C502.009 395.738 502 395.869 502 396Z" fill="#CCCCCC"/>
<path d="M622.758 353.575C622.758 353.575 626.768 389.07 603.346 394.493C581.082 399.647 550.371 394.36 550.371 394.36L513.759 390.872C513.759 390.872 512.156 433.796 512.156 455.004C504.718 455.926 497.222 456.415 489.716 456.466C488.113 456.466 488.006 455.7 488.006 455.7L484.902 381.514C484.684 378.288 485.209 375.057 486.442 372.028C487.675 368.998 489.59 366.238 492.062 363.925C494.535 361.611 497.511 359.796 500.799 358.595C504.087 357.394 507.615 356.835 511.154 356.953C512.882 357.013 514.695 357.125 516.593 357.288C539.116 359.259 567.077 355.069 567.077 355.069L622.758 353.575Z" fill="#2F2E41"/>
<path d="M441.554 286.025C441.57 286.009 441.581 285.988 441.585 285.966L442.172 282.446C442.685 279.363 445.468 277.184 448.584 277.423L448.817 277.441C449.322 277.48 449.816 277.602 450.281 277.801L452.774 278.869C452.959 278.949 453.079 279.131 453.079 279.332V279.332C453.079 279.667 452.759 279.908 452.437 279.817L449.788 279.06C449.649 279.02 449.507 278.992 449.363 278.976L445.983 278.6C445.44 278.54 444.917 278.825 444.672 279.313L441.38 285.899C441.324 286.009 441.467 286.112 441.554 286.025V286.025Z" fill="#FDFDFD"/>
<path d="M438.114 277.495C438.088 277.228 438.289 277.003 438.557 277C439.531 276.991 441.726 277.1 442.579 278.204C443.366 279.223 443.027 280.204 443.038 281.401C443.041 281.719 442.782 281.989 442.468 281.941C441.552 281.799 439.849 281.422 439.079 280.517C438.414 279.734 438.188 278.255 438.114 277.495Z" fill="#FDFDFD"/>
<path d="M513.013 335.101C525.864 334.993 538.717 334.971 551.572 335.037L551.698 350.291C551.757 353.435 552.391 356.662 551.624 359.795C551.438 360.554 551.343 361.812 549.605 362.392C537.744 363.427 516.332 362.83 503.551 362.817L453.381 362.846C440.939 362.918 428.621 362.929 416.19 362.73C412.428 358.55 414.633 353.794 414.732 349.498C414.841 344.724 426.899 339.809 427.5 335.037C459.414 335.373 480.939 335.19 513.013 335.101Z" fill="#CACACA"/>
<path d="M509.48 284.099C510.8 283.811 512.173 283.79 513.502 284.039C514.832 284.287 516.086 284.799 517.175 285.537C518.265 286.275 519.164 287.223 519.808 288.312C520.453 289.402 520.829 290.607 520.908 291.844L540.943 298.206L539.676 310.259L511.52 300.911C509.235 300.895 507.036 300.114 505.34 298.717C503.643 297.321 502.567 295.404 502.316 293.332C502.064 291.26 502.655 289.175 503.975 287.474C505.295 285.772 507.254 284.571 509.48 284.099Z" fill="#FFB6B6"/>
<path d="M542.133 319.131C550.099 324.198 564.134 326.79 583.236 326.671C584.294 326.673 585.34 326.476 586.309 326.09C587.279 325.704 588.15 325.139 588.867 324.43C593.979 319.574 593.779 308.488 593.747 307.417L599.349 288.153C599.469 287.858 602.57 279.954 599.416 274.434C598.744 273.281 597.808 272.274 596.67 271.483C595.532 270.691 594.219 270.134 592.823 269.85C580.975 266.981 569.838 295.918 568.423 299.742L551.797 297.158L540.315 296.727L528.633 290.844L522.056 305.207L538.332 316.06C539.455 317.223 540.732 318.255 542.133 319.131Z" fill="#2F2E41"/>
<path d="M512.806 472.778L493.392 472.549L493.78 480.118L475.969 492.503C475.089 493.114 474.446 493.966 474.135 494.935C473.823 495.903 473.859 496.937 474.237 497.885C474.616 498.834 475.316 499.647 476.237 500.206C477.157 500.766 478.25 501.042 479.354 500.995L502.403 500.011L505.992 492.355L507.927 499.776L516.618 499.405L512.806 472.778Z" fill="#2F2E41"/>
<path d="M557.793 302.083C557.793 302.083 548.284 354.549 554.71 358.737C561.136 362.926 569.948 362.942 569.948 362.942L571.997 333.973L557.793 302.083Z" fill="#2F2E41"/>
<path d="M573.651 237.646L560.938 248.67C555.029 253.793 551.112 260.535 549.781 267.873C548.451 275.212 549.779 282.746 553.565 289.333L559.642 299.907L573.651 237.646Z" fill="#2F2E41"/>
<path d="M576.495 239.5L559.268 257.404C555.487 261.333 553.145 266.241 552.566 271.443C552.303 273.805 552.409 276.189 552.88 278.525L559.372 310.727L564.251 357.231C564.251 357.231 601.923 367.646 605.779 351.564C609.635 335.482 576.495 239.5 576.495 239.5Z" fill="#132B39"/>
<path d="M592.664 361.602C617.428 357.836 623.494 357.089 623.872 356.957L624.25 356.825L621.768 343.235L611.287 319.734C610.606 312.047 606.192 301.631 608.717 293.265C616.059 268.944 604.131 234.576 598.676 231.943L583.553 222.897L578.244 227.338L569.04 239.095C561.467 269.877 556.237 298.567 556.491 300.32L561.165 330.455L566.673 342.014C583.381 349.37 572.146 364.722 592.664 361.602Z" fill="#2F2E41"/>
<path d="M547.83 339.495L508.948 330.002L505.524 329.262L503.083 328.733L500.238 328.119L500.216 328.114C499.802 328.028 499.368 328.094 499.008 328.297L484.571 344.092C484.44 344.165 484.325 344.26 484.231 344.37C484.192 344.399 484.158 344.432 484.128 344.469C483.969 344.668 483.865 344.899 483.826 345.143C483.788 345.387 483.816 345.636 483.907 345.868C483.999 346.1 484.152 346.308 484.352 346.473C484.553 346.639 484.795 346.756 485.057 346.816L543.061 358.996C543.362 359.058 543.676 359.042 543.966 358.948C544.257 358.854 544.512 358.688 544.704 358.467L545.292 357.771L548.502 343.667L548.73 341.836C548.876 341.667 548.979 341.47 549.031 341.26C549.125 340.881 549.051 340.483 548.826 340.153C548.602 339.823 548.244 339.586 547.83 339.495Z" fill="#E6E6E6"/>
<path opacity="0.17" d="M545.292 357.77L544.7 358.468C544.51 358.688 544.255 358.854 543.965 358.948C543.675 359.042 543.362 359.059 543.062 358.997L485.056 346.817C484.794 346.757 484.552 346.639 484.352 346.474C484.151 346.309 483.998 346.101 483.907 345.87C483.815 345.638 483.787 345.389 483.826 345.145C483.865 344.901 483.969 344.67 484.129 344.471C484.157 344.434 484.191 344.4 484.23 344.372L545.292 357.77Z" fill="black"/>
<path d="M500.528 328.016L501.577 260.542C501.621 260.136 501.487 259.731 501.203 259.415L493.77 245.3L492.998 244.444C492.711 244.131 492.301 243.933 491.856 243.893L490.238 243.755C489.793 243.715 489.348 243.838 489.002 244.097C488.656 244.357 488.437 244.731 488.393 245.137L486.936 316.53L486.935 316.535L486.213 323.409L485.357 331.572L485.355 331.582L484.02 344.282C483.995 344.5 484.022 344.719 484.099 344.926C484.176 345.133 484.301 345.321 484.466 345.48C484.627 345.64 484.824 345.767 485.043 345.853C485.261 345.938 485.498 345.98 485.736 345.976L486.789 345.956C487.192 345.947 487.58 345.808 487.882 345.563L488.471 345.08L488.743 344.854L499.97 329.019C500.288 328.761 500.488 328.403 500.528 328.016Z" fill="#E6E6E6"/>
<path opacity="0.17" d="M493.768 245.3L488.745 344.856L488.47 345.08L487.883 345.561C487.581 345.806 487.194 345.946 486.79 345.955L485.735 345.974C485.497 345.978 485.26 345.936 485.041 345.85C484.822 345.765 484.625 345.638 484.463 345.478C484.301 345.318 484.178 345.129 484.101 344.923C484.025 344.717 483.997 344.499 484.019 344.282L488.395 245.139C488.438 244.733 488.656 244.358 489.001 244.098C489.347 243.838 489.791 243.713 490.237 243.752L491.858 243.894C492.078 243.912 492.292 243.971 492.488 244.065C492.683 244.16 492.855 244.289 492.995 244.445L493.768 245.3Z" fill="black"/>
<path d="M493.345 249.322L500.143 264.632L499.302 310.431L491.943 320.142L493.345 249.322Z" fill="#132B39"/>
<path d="M543.349 339.091C543.721 339.188 544.036 339.415 544.224 339.724C544.412 340.032 544.458 340.396 544.353 340.735L541.358 352.123L538.552 351.394L541.547 340.006C541.653 339.667 541.902 339.38 542.24 339.208C542.578 339.036 542.977 338.994 543.349 339.091Z" fill="#2F2E41"/>
<path d="M537.737 337.633C538.109 337.73 538.424 337.957 538.612 338.266C538.8 338.574 538.847 338.938 538.741 339.277L538.102 341.326L535.296 340.597L535.935 338.548C536.041 338.209 536.29 337.922 536.628 337.75C536.966 337.578 537.365 337.536 537.737 337.633Z" fill="#2F2E41"/>
<path d="M532.126 336.175C532.498 336.272 532.813 336.499 533.001 336.808C533.189 337.116 533.235 337.48 533.129 337.819L532.49 339.868L529.684 339.139L530.324 337.09C530.43 336.751 530.679 336.464 531.017 336.292C531.355 336.12 531.754 336.078 532.126 336.175Z" fill="#2F2E41"/>
<path d="M526.514 334.717C526.886 334.814 527.201 335.041 527.389 335.35C527.577 335.658 527.623 336.022 527.518 336.361L526.878 338.41L524.073 337.681L524.712 335.632C524.818 335.293 525.067 335.006 525.405 334.834C525.743 334.662 526.142 334.62 526.514 334.717Z" fill="#2F2E41"/>
<path d="M520.902 333.259C521.274 333.356 521.589 333.583 521.777 333.892C521.965 334.2 522.012 334.564 521.906 334.903L521.267 336.952L518.461 336.223L519.1 334.174C519.206 333.835 519.455 333.548 519.793 333.376C520.131 333.204 520.53 333.162 520.902 333.259Z" fill="#2F2E41"/>
<path d="M515.291 331.801C515.663 331.898 515.977 332.125 516.165 332.434C516.354 332.742 516.4 333.106 516.294 333.445L515.655 335.494L512.849 334.765L513.488 332.716C513.594 332.377 513.844 332.09 514.182 331.918C514.52 331.746 514.918 331.704 515.291 331.801Z" fill="#2F2E41"/>
<path d="M509.679 330.343C510.051 330.44 510.366 330.667 510.554 330.976C510.742 331.284 510.788 331.648 510.683 331.987L510.043 334.036L507.238 333.307L507.877 331.258C507.983 330.919 508.232 330.632 508.57 330.46C508.908 330.288 509.307 330.246 509.679 330.343Z" fill="#2F2E41"/>
<path d="M504.067 328.885C504.439 328.982 504.754 329.209 504.942 329.518C505.13 329.826 505.177 330.19 505.071 330.529L504.432 332.578L501.626 331.849L502.265 329.8C502.371 329.461 502.62 329.174 502.958 329.002C503.296 328.83 503.695 328.788 504.067 328.885Z" fill="#2F2E41"/>
<path d="M536.56 342.302C536.932 342.399 537.246 342.627 537.434 342.935C537.623 343.243 537.669 343.607 537.563 343.947L536.924 345.995L534.118 345.266L534.757 343.218C534.863 342.878 535.113 342.591 535.451 342.42C535.789 342.248 536.187 342.206 536.56 342.302Z" fill="#2F2E41"/>
<path d="M530.948 340.844C531.32 340.941 531.635 341.169 531.823 341.477C532.011 341.785 532.057 342.149 531.952 342.489L531.313 344.537L528.507 343.808L529.146 341.76C529.252 341.42 529.501 341.133 529.839 340.962C530.177 340.79 530.576 340.748 530.948 340.844Z" fill="#2F2E41"/>
<path d="M525.336 339.386C525.708 339.483 526.023 339.711 526.211 340.019C526.399 340.327 526.446 340.691 526.34 341.031L525.701 343.079L522.895 342.35L523.534 340.302C523.64 339.962 523.89 339.675 524.228 339.504C524.565 339.332 524.964 339.29 525.336 339.386Z" fill="#2F2E41"/>
<path d="M519.725 337.928C520.097 338.025 520.411 338.253 520.599 338.561C520.788 338.869 520.834 339.233 520.728 339.573L520.089 341.621L517.283 340.892L517.922 338.844C518.028 338.504 518.278 338.217 518.616 338.046C518.954 337.874 519.352 337.832 519.725 337.928Z" fill="#2F2E41"/>
<path d="M514.113 336.47C514.485 336.567 514.799 336.795 514.988 337.103C515.176 337.411 515.222 337.775 515.116 338.115L514.477 340.163L511.671 339.434L512.31 337.386C512.416 337.046 512.666 336.759 513.004 336.588C513.342 336.416 513.741 336.374 514.113 336.47Z" fill="#2F2E41"/>
<path d="M508.501 335.012C508.873 335.109 509.188 335.337 509.376 335.645C509.564 335.953 509.611 336.317 509.505 336.657L508.866 338.705L506.06 337.976L506.699 335.928C506.805 335.588 507.055 335.301 507.393 335.13C507.731 334.958 508.129 334.916 508.501 335.012Z" fill="#2F2E41"/>
<path d="M502.89 333.554C503.262 333.651 503.576 333.879 503.764 334.187C503.953 334.495 503.999 334.859 503.893 335.199L503.254 337.247L500.448 336.518L501.087 334.47C501.193 334.13 501.443 333.843 501.781 333.672C502.119 333.5 502.518 333.458 502.89 333.554Z" fill="#2F2E41"/>
<path d="M535.382 346.972C535.754 347.068 536.069 347.296 536.257 347.604C536.445 347.913 536.492 348.277 536.386 348.616L535.747 350.664L532.941 349.936L533.58 347.887C533.686 347.548 533.935 347.261 534.273 347.089C534.611 346.917 535.01 346.875 535.382 346.972Z" fill="#2F2E41"/>
<path d="M529.771 345.514C530.143 345.61 530.457 345.838 530.645 346.146C530.833 346.455 530.88 346.819 530.774 347.158L530.135 349.206L527.329 348.477L527.968 346.429C528.074 346.09 528.324 345.803 528.662 345.631C529 345.459 529.398 345.417 529.771 345.514Z" fill="#2F2E41"/>
<path d="M524.159 344.056C524.531 344.152 524.845 344.38 525.034 344.688C525.222 344.997 525.268 345.361 525.162 345.7L524.523 347.748L521.717 347.019L522.356 344.971C522.462 344.632 522.712 344.345 523.05 344.173C523.388 344.001 523.787 343.959 524.159 344.056Z" fill="#2F2E41"/>
<path d="M518.547 342.598C518.919 342.694 519.234 342.922 519.422 343.23C519.61 343.539 519.656 343.903 519.55 344.242L518.911 346.29L516.105 345.561L516.744 343.513C516.851 343.174 517.1 342.887 517.438 342.715C517.776 342.543 518.175 342.501 518.547 342.598Z" fill="#2F2E41"/>
<path d="M512.935 341.14C513.307 341.236 513.622 341.464 513.81 341.772C513.998 342.081 514.044 342.445 513.938 342.784L513.299 344.832L510.493 344.103L511.133 342.055C511.239 341.716 511.488 341.429 511.826 341.257C512.164 341.085 512.563 341.043 512.935 341.14Z" fill="#2F2E41"/>
<path d="M507.324 339.682C507.696 339.778 508.01 340.006 508.199 340.314C508.387 340.623 508.433 340.987 508.327 341.326L507.688 343.374L504.882 342.645L505.521 340.597C505.627 340.258 505.877 339.971 506.215 339.799C506.553 339.627 506.952 339.585 507.324 339.682Z" fill="#2F2E41"/>
<path d="M501.712 338.224C502.084 338.32 502.399 338.548 502.587 338.856C502.775 339.165 502.821 339.529 502.715 339.868L502.076 341.916L499.27 341.187L499.91 339.139C500.016 338.8 500.265 338.513 500.603 338.341C500.941 338.169 501.34 338.127 501.712 338.224Z" fill="#2F2E41"/>
<path d="M518.199 329.387C518.951 328.356 519.943 327.489 521.102 326.846C522.262 326.203 523.562 325.799 524.911 325.664C526.26 325.529 527.626 325.666 528.911 326.064C530.196 326.462 531.369 327.113 532.349 327.97L551.778 320.198L559.834 329.819L532.227 340.444C530.54 341.85 528.347 342.643 526.062 342.671C523.777 342.7 521.56 341.964 519.831 340.601C518.102 339.238 516.98 337.344 516.68 335.277C516.379 333.21 516.919 331.114 518.199 329.387Z" fill="#FFB6B6"/>
<path d="M568.25 334.797C577.867 333.566 590.086 326.755 603.999 314.812C604.776 314.157 605.396 313.362 605.819 312.478C606.242 311.594 606.459 310.639 606.457 309.674C606.583 302.942 598.172 294.94 597.35 294.175L587.095 276.577C586.964 276.286 583.344 268.568 576.917 266.48C575.565 266.051 574.128 265.895 572.704 266.021C571.28 266.147 569.902 266.553 568.667 267.211C557.844 272.462 571.253 300.586 573.066 304.267L558.953 312.693L550.215 319.504L537.266 322.442L543.153 337.052L563.175 334.905C564.865 335.061 566.57 335.024 568.25 334.797Z" fill="#2F2E41"/>
<path d="M549.287 201.686C547.666 189.342 557.08 178.163 570.313 176.716C583.546 175.269 595.588 184.103 597.209 196.447C598.83 208.791 589.416 219.971 576.183 221.418C562.949 222.865 550.907 214.031 549.287 201.686Z" fill="#FFB6B6"/>
<path d="M636.917 185.883C632.7 181.536 630.594 175.75 627.184 170.807C623.773 165.863 617.952 161.454 611.962 162.642C607.833 163.462 604.717 166.829 603.194 170.573C601.673 174.316 602 178.5 602.757 179.5C602.631 171.208 594.988 166.176 586.688 163.577C578.388 160.977 568.622 163.983 563.633 170.673C561.325 168.773 558.35 167.701 555.273 167.659C552.196 167.617 549.23 168.609 546.938 170.446C542.416 174.252 541.589 181.452 545.121 186.254C548.654 191.057 556.068 192.812 561.4 190.107L563.355 191.704C562.373 195.15 564.57 199.202 568.111 200.478C570.983 201.512 574.992 201.315 576.131 204.038C576.926 205.94 575.592 207.983 574.154 209.456C572.716 210.93 571.002 212.452 570.88 214.481C570.695 217.541 574.21 219.665 577.369 220.292C584.989 221.806 593.308 218.551 597.508 212.411C597.589 212.293 597.677 212.174 597.773 212.056C600.145 209.177 601.841 205.875 602.757 202.351C603.673 198.828 603.79 195.157 603.1 191.563C603.1 191.563 601.5 190 604.091 188.758C607 188 616.837 175.865 625.623 192.972C634.408 210.08 632.315 200.881 636.67 202.209C641.025 203.537 641.022 212.806 650.12 206.514C659.218 200.222 657.112 203.298 659.218 200.222C661.323 197.147 663.598 194.339 663.516 190.014C663.319 179.504 643.553 192.724 636.917 185.883Z" fill="#2F2E41"/>
<path d="M340.73 15.8304C336.044 15.8304 332.245 12.2867 332.245 7.91522C332.245 3.54377 336.044 0 340.73 0C345.417 0 349.216 3.54377 349.216 7.91522C349.216 12.2867 345.417 15.8304 340.73 15.8304Z" fill="#3F3D56"/>
<path d="M311.417 15.8304C306.73 15.8304 302.931 12.2867 302.931 7.91522C302.931 3.54377 306.73 0 311.417 0C316.103 0 319.902 3.54377 319.902 7.91522C319.902 12.2867 316.103 15.8304 311.417 15.8304Z" fill="#3F3D56"/>
<path d="M282.103 15.8304C277.417 15.8304 273.618 12.2867 273.618 7.91522C273.618 3.54377 277.417 0 282.103 0C286.79 0 290.589 3.54377 290.589 7.91522C290.589 12.2867 286.79 15.8304 282.103 15.8304Z" fill="#3F3D56"/>
<path d="M639.743 328.871L639.732 328.856L639.743 328.886V328.871Z" fill="#2F2E41"/>
<path d="M51.153 88.3264H146.939C147.35 88.327 147.756 88.2537 148.136 88.1107C148.516 87.9677 148.861 87.7578 149.151 87.4931C149.442 87.2283 149.672 86.9139 149.83 86.5678C149.987 86.2217 150.068 85.8506 150.068 85.4759C150.068 85.1012 149.987 84.7302 149.83 84.3841C149.672 84.0379 149.442 83.7235 149.151 83.4587C148.861 83.194 148.516 82.9841 148.136 82.8411C147.756 82.6982 147.35 82.6249 146.939 82.6255H51.153C50.7423 82.6249 50.3356 82.6982 49.956 82.8411C49.5764 82.9841 49.2314 83.194 48.9408 83.4587C48.6502 83.7235 48.4197 84.0379 48.2624 84.3841C48.1051 84.7302 48.0241 85.1012 48.0241 85.4759C48.0241 85.8506 48.1051 86.2217 48.2624 86.5678C48.4197 86.9139 48.6502 87.2283 48.9408 87.4931C49.2314 87.7578 49.5764 87.9677 49.956 88.1107C50.3356 88.2537 50.7423 88.327 51.153 88.3264Z" fill="#E6E7E8"/>
<path d="M123.149 99.5898H146.939C147.767 99.5898 148.562 99.2895 149.148 98.7549C149.734 98.2203 150.063 97.4953 150.063 96.7392C150.063 95.9832 149.734 95.2582 149.148 94.7236C148.562 94.189 147.767 93.8887 146.939 93.8887H123.149C122.32 93.8887 121.525 94.189 120.94 94.7236C120.354 95.2582 120.025 95.9832 120.025 96.7392C120.025 97.4953 120.354 98.2203 120.94 98.7549C121.525 99.2895 122.32 99.5898 123.149 99.5898Z" fill="#E6E7E8"/>
<path d="M51.1531 237.735H146.939C147.768 237.735 148.562 237.435 149.148 236.9C149.734 236.366 150.063 235.641 150.063 234.885C150.063 234.129 149.734 233.404 149.148 232.869C148.562 232.334 147.768 232.034 146.939 232.034H51.1531C50.3246 232.034 49.53 232.334 48.9442 232.869C48.3583 233.404 48.0292 234.129 48.0292 234.885C48.0292 235.641 48.3583 236.366 48.9442 236.9C49.53 237.435 50.3246 237.735 51.1531 237.735Z" fill="#E6E7E8"/>
<path d="M123.149 248.999H146.939C147.767 248.999 148.562 248.698 149.148 248.164C149.734 247.629 150.063 246.904 150.063 246.148C150.063 245.392 149.734 244.667 149.148 244.132C148.562 243.598 147.767 243.297 146.939 243.297H123.149C122.32 243.297 121.525 243.598 120.94 244.132C120.354 244.667 120.025 245.392 120.025 246.148C120.025 246.904 120.354 247.629 120.94 248.164C121.525 248.698 122.32 248.999 123.149 248.999Z" fill="#E6E7E8"/>
<path d="M308.412 223.438C302.618 223.438 297.921 219.152 297.921 213.866C297.921 208.579 302.618 204.293 308.412 204.293C314.206 204.293 318.902 208.579 318.902 213.866C318.902 219.152 314.206 223.438 308.412 223.438Z" fill="#E6E7E8"/>
<path d="M219.993 235.062H315.778C316.607 235.062 317.402 234.762 317.987 234.227C318.573 233.693 318.902 232.968 318.902 232.212C318.902 231.456 318.573 230.731 317.987 230.196C317.402 229.662 316.607 229.361 315.778 229.361H219.993C219.164 229.361 218.369 229.662 217.784 230.196C217.198 230.731 216.869 231.456 216.869 232.212C216.869 232.968 217.198 233.693 217.784 234.227C218.369 234.762 219.164 235.062 219.993 235.062Z" fill="#E6E7E8"/>
<path d="M291.988 246.326H315.778C316.607 246.326 317.401 246.025 317.987 245.491C318.573 244.956 318.902 244.231 318.902 243.475C318.902 242.719 318.573 241.994 317.987 241.459C317.401 240.925 316.607 240.625 315.778 240.625H291.988C291.159 240.625 290.365 240.925 289.779 241.459C289.193 241.994 288.864 242.719 288.864 243.475C288.864 244.231 289.193 244.956 289.779 245.491C290.365 246.025 291.159 246.326 291.988 246.326Z" fill="#E6E7E8"/>
<path d="M51.1531 157.399H146.939C147.768 157.399 148.562 157.099 149.148 156.564C149.734 156.03 150.063 155.305 150.063 154.549C150.063 153.793 149.734 153.068 149.148 152.533C148.562 151.999 147.768 151.698 146.939 151.698H51.1531C50.3246 151.698 49.53 151.999 48.9442 152.533C48.3583 153.068 48.0292 153.793 48.0292 154.549C48.0292 155.305 48.3583 156.03 48.9442 156.564C49.53 157.099 50.3246 157.399 51.1531 157.399Z" fill="#E6E7E8"/>
<path d="M89.3807 168.663H146.939C147.767 168.663 148.562 168.362 149.148 167.828C149.734 167.293 150.063 166.568 150.063 165.812C150.063 165.056 149.734 164.331 149.148 163.796C148.562 163.262 147.767 162.961 146.939 162.961H89.3807C88.5522 162.961 87.7575 163.262 87.1717 163.796C86.5858 164.331 86.2567 165.056 86.2567 165.812C86.2567 166.568 86.5858 167.293 87.1717 167.828C87.7575 168.362 88.5522 168.663 89.3807 168.663Z" fill="#E6E7E8"/>
<path d="M105.418 179.926H146.939C147.767 179.926 148.562 179.626 149.148 179.091C149.734 178.557 150.063 177.832 150.063 177.076C150.063 176.32 149.734 175.595 149.148 175.06C148.562 174.525 147.767 174.225 146.939 174.225H105.418C104.589 174.225 103.795 174.525 103.209 175.06C102.623 175.595 102.294 176.32 102.294 177.076C102.294 177.832 102.623 178.557 103.209 179.091C103.795 179.626 104.589 179.926 105.418 179.926Z" fill="#E6E7E8"/>
<path d="M235.219 73.9994V174.501C235.22 175.202 235.526 175.874 236.069 176.371C236.612 176.867 237.348 177.147 238.117 177.148H296.152C302.572 171.715 307.84 165.249 311.69 158.072C311.943 157.61 312.184 157.144 312.414 156.671C315.922 149.726 318.045 142.266 318.685 134.64C318.728 134.171 318.764 133.705 318.788 133.232C318.867 132.022 318.902 130.793 318.902 129.562C318.914 121.363 317.217 113.237 313.902 105.617C313.704 105.143 313.495 104.674 313.277 104.208C308.913 94.8444 302.202 86.5455 293.685 79.9775C293.179 79.5838 292.667 79.2009 292.149 78.8288L292.03 78.742C285.366 73.9273 277.108 71.3192 268.607 71.3444H238.117C237.347 71.3466 236.61 71.6274 236.066 72.1251C235.523 72.6228 235.219 73.2969 235.219 73.9994Z" fill="#132B39"/>
<path opacity="0.2" d="M235.065 105.616V104.208H260.947V71.3442H262.487V104.208H292.149V78.8287C292.668 79.2007 293.18 79.5836 293.685 79.9773V104.208H313.277C313.495 104.674 313.705 105.143 313.903 105.616H293.685V133.231H318.788C318.764 133.705 318.728 134.171 318.685 134.64H293.685V156.671H312.414C312.184 157.144 311.943 157.61 311.69 158.072H293.685V176.592H292.149V158.072H262.487V176.592H260.947V158.072H235.065V156.671H260.947C260.948 153.778 260.324 150.912 259.11 148.239C257.897 145.566 256.119 143.137 253.877 141.092C251.635 139.046 248.973 137.423 246.043 136.316C243.114 135.209 239.974 134.64 236.803 134.64H235.065V133.231H260.947V105.616H235.065ZM262.487 156.671H292.149V134.64H262.487V156.671ZM262.487 133.231H292.149V132.679C292.149 129.125 291.382 125.605 289.891 122.322C288.4 119.038 286.215 116.055 283.461 113.542C280.706 111.029 277.436 109.036 273.838 107.676C270.239 106.316 266.382 105.616 262.487 105.616V133.231Z" fill="black"/>
<path d="M314.211 171.681C306.795 174.845 298.413 177.257 288.979 178.743C282.848 179.691 276.666 180.24 270.469 180.385C265.045 180.527 259.334 180.399 253.334 180.001V55.8205C253.335 55.1985 253.572 54.6024 253.993 54.1629C254.414 53.7234 254.984 53.4766 255.579 53.4766L256.475 53.48L260.066 53.4901H260.127L356.532 53.7411H356.97L360.454 53.7513C360.953 55.4338 361.418 57.1672 361.848 58.9514C370.529 95.0059 364.119 150.382 314.211 171.681Z" fill="#F2F2F2"/>
<path d="M274.839 105.74C274.896 109.848 268.724 109.848 268.782 105.739C268.725 101.631 274.897 101.631 274.839 105.74Z" fill="#132B39"/>
<path d="M328.137 110.867H269.684C269.445 110.867 269.216 110.967 269.047 111.143C268.879 111.32 268.784 111.559 268.784 111.809C268.784 112.058 268.879 112.298 269.047 112.474C269.216 112.651 269.445 112.75 269.684 112.75H328.137C329.321 112.77 329.292 110.847 328.137 110.867Z" fill="#CCCCCC"/>
<path d="M307.356 114.591H269.684C269.445 114.591 269.215 114.691 269.046 114.868C268.877 115.044 268.782 115.284 268.782 115.534C268.782 115.785 268.877 116.024 269.046 116.201C269.215 116.378 269.445 116.477 269.684 116.477H307.356C308.534 116.494 308.514 114.574 307.356 114.591Z" fill="#CCCCCC"/>
<path d="M328.137 82.8824H269.684C269.445 82.8824 269.215 82.9818 269.046 83.1586C268.877 83.3355 268.782 83.5753 268.782 83.8254C268.782 84.0755 268.877 84.3154 269.046 84.4922C269.215 84.6691 269.445 84.7684 269.684 84.7684H328.137C329.321 84.7854 329.292 82.8655 328.137 82.8824Z" fill="#CCCCCC"/>
<path d="M307.356 86.6105H269.684C269.445 86.6105 269.215 86.7098 269.046 86.8867C268.877 87.0635 268.782 87.3034 268.782 87.5535C268.782 87.8036 268.877 88.0434 269.046 88.2203C269.215 88.3971 269.445 88.4965 269.684 88.4965H307.356C308.534 88.5134 308.514 86.5935 307.356 86.6105Z" fill="#CCCCCC"/>
<path d="M307.356 90.5148H269.684C269.445 90.5148 269.215 90.6141 269.046 90.791C268.877 90.9678 268.782 91.2077 268.782 91.4578C268.782 91.7079 268.877 91.9477 269.046 92.1246C269.215 92.3014 269.445 92.4008 269.684 92.4008H307.356C308.534 92.4177 308.514 90.4978 307.356 90.5148Z" fill="#CCCCCC"/>
<path d="M274.839 130.142C274.896 134.251 268.724 134.251 268.782 130.142C268.725 126.034 274.897 126.034 274.839 130.142Z" fill="#132B39"/>
<path d="M328.137 135.267H269.684C269.445 135.267 269.215 135.366 269.046 135.543C268.877 135.72 268.782 135.96 268.782 136.21C268.782 136.46 268.877 136.7 269.046 136.877C269.215 137.053 269.445 137.153 269.684 137.153H328.137C329.321 137.17 329.292 135.25 328.137 135.267Z" fill="#CCCCCC"/>
<path d="M307.356 138.994H269.684C269.445 138.994 269.215 139.094 269.046 139.27C268.877 139.447 268.782 139.687 268.782 139.937C268.782 140.187 268.877 140.427 269.046 140.604C269.215 140.781 269.445 140.88 269.684 140.88H307.356C308.534 140.897 308.514 138.977 307.356 138.994Z" fill="#CCCCCC"/>
<path d="M273.876 77.782C273.932 81.8599 267.807 81.8599 267.864 77.7818C267.807 73.7042 273.933 73.7042 273.876 77.782Z" fill="#132B39"/>
<path d="M358.068 54.1967C357.602 53.7088 256.057 55.1353 256.172 53.7032C255.672 53.1632 360.852 51.928 358.068 54.1967Z" fill="#CACACA"/>
<path d="M251.238 58.9545C254.131 58.9545 256.476 56.5023 256.476 53.4773C256.476 50.4523 254.131 48 251.238 48C248.345 48 246 50.4523 246 53.4773C246 56.5023 248.345 58.9545 251.238 58.9545Z" fill="#CACACA"/>
<path d="M361.762 58.9545C364.655 58.9545 367 56.5023 367 53.4773C367 50.4523 364.655 48 361.762 48C358.869 48 356.524 50.4523 356.524 53.4773C356.524 56.5023 358.869 58.9545 361.762 58.9545Z" fill="#CACACA"/>
<path d="M314.211 171.681C306.795 174.845 298.413 177.257 288.979 178.743C282.848 179.691 276.666 180.239 270.469 180.385C264.889 180.317 259.178 180.189 253.334 180.001V175.673C261.201 168.77 294.906 167.668 314.211 171.681Z" fill="#CACACA"/>
<path d="M129.156 25.4402C132.891 25.4402 136.598 25.0304 140.307 25.0003C141.229 24.9928 142.393 25.1323 143.016 25.9608C144.666 28.1541 143.099 34.3535 142.706 37.0004C144.44 37.7796 146.489 38.6785 147.806 40.1706C148.525 40.9847 149.026 41.8453 149.28 42.9467C150.39 47.756 149.887 53.5765 149.882 58.5145C149.888 65.9618 149.852 73.4088 149.774 80.8557L144.327 80.8009C137.263 80.7918 130.199 80.8582 123.136 81C123.207 73.8013 123.214 66.6025 123.157 59.4038C123.118 54.6554 122.681 49.4315 123.461 44.7603C123.772 42.8954 124.321 41.5114 125.23 39.9024C126.839 38.7586 128.364 37.9848 130.178 37.3219C129.871 33.3534 129.265 29.4279 129.156 25.4402Z" fill="#E6E7E8"/>
<path d="M129.156 127.157C132.891 127.157 136.598 127.011 140.307 127C141.229 126.997 142.393 127.047 143.016 127.343C144.666 128.126 143.099 130.341 142.706 131.286C144.44 131.564 146.489 131.885 147.806 132.418C148.525 132.709 149.026 133.016 149.28 133.41C150.39 135.127 149.887 137.206 149.882 138.969C149.888 141.629 149.852 144.289 149.774 146.948L144.327 146.929C137.263 146.926 130.199 146.949 123.136 147C123.207 144.429 123.214 141.858 123.157 139.287C123.118 137.591 122.681 135.726 123.461 134.057C123.772 133.391 124.321 132.897 125.23 132.322C126.839 131.914 128.364 131.637 130.178 131.401C129.871 129.983 129.265 128.581 129.156 127.157Z" fill="#E6E7E8"/>
<path d="M307.475 208.025C307.491 208.009 307.502 207.988 307.506 207.966L308.092 204.446C308.606 201.363 311.389 199.184 314.504 199.423L314.738 199.441C315.243 199.48 315.737 199.602 316.202 199.801L318.695 200.869C318.88 200.949 319 201.131 319 201.332V201.332C319 201.667 318.68 201.908 318.358 201.817L315.709 201.06C315.57 201.02 315.428 200.992 315.284 200.976L311.904 200.6C311.361 200.54 310.838 200.825 310.593 201.313L307.301 207.899C307.245 208.009 307.388 208.112 307.475 208.025V208.025Z" fill="#E6E7E8"/>
<path d="M304.035 199.495C304.009 199.228 304.21 199.003 304.478 199C305.452 198.991 307.647 199.1 308.5 200.204C309.287 201.223 308.948 202.204 308.959 203.401C308.962 203.719 308.703 203.989 308.389 203.941C307.473 203.799 305.77 203.422 305 202.517C304.334 201.734 304.109 200.255 304.035 199.495Z" fill="#E6E7E8"/>
<rect x="126" y="202" width="20" height="27" rx="4" fill="#E6E7E8"/>
<rect x="129" y="199" width="4" height="5" rx="1" fill="#E6E7E8"/>
</svg>
