<svg version="1.1" id="Layer_1" xmlns="http://www.w3.org/2000/svg" xmlns:xlink="http://www.w3.org/1999/xlink" x="0px" y="0px"
	 width="100%" viewBox="0 0 992 640" enable-background="new 0 0 992 640" xml:space="preserve">
<path fill="#000000" opacity="1.000000" stroke="none" 
	d="
M260.890533,441.402710 
	C247.771011,441.097198 235.086517,442.237335 222.514755,440.033051 
	C190.633133,434.443024 161.392303,422.496399 136.066254,402.251556 
	C102.648109,375.538177 80.241837,341.335693 69.729370,299.715637 
	C63.073170,273.362946 62.636414,246.562027 67.304863,219.961533 
	C72.840965,188.417099 86.129967,159.998749 106.373375,135.138138 
	C126.961136,109.854637 152.733032,91.176765 183.014587,79.291931 
	C203.353531,71.309349 224.574188,66.849915 246.698166,66.453384 
	C274.558411,65.954048 301.300964,70.491776 326.887665,81.432892 
	C344.913147,89.140755 361.374756,99.463913 376.082947,112.473267 
	C380.856628,116.695572 381.862762,116.854767 386.518677,112.755234 
	C408.311218,93.566811 432.780365,79.071152 460.802521,71.077896 
	C475.529022,66.877182 490.589142,64.614235 505.966034,63.881947 
	C524.390259,63.004536 542.432434,65.038567 560.232056,69.338760 
	C579.632568,74.025681 597.702881,82.007706 614.498718,92.824539 
	C617.999756,95.079231 621.795593,96.990997 624.924438,99.679070 
	C628.682800,102.908012 631.749329,102.517799 635.563904,99.859161 
	C655.609924,85.887863 677.645386,76.329597 701.404114,70.690437 
	C722.691040,65.637993 744.273560,64.660591 765.879272,67.277412 
	C802.624512,71.727905 835.327026,86.116821 863.905762,109.570236 
	C882.086304,124.490303 896.573608,142.519714 907.982239,163.167206 
	C918.822693,182.786453 925.837646,203.587799 929.218201,225.658447 
	C931.613037,241.293793 932.349915,256.989746 930.564392,272.776764 
	C926.611267,307.728394 914.831604,339.609161 893.416931,367.683472 
	C864.669495,405.370819 827.102173,429.366577 780.537781,438.295410 
	C744.196533,445.263916 708.311462,442.770264 673.613098,429.121338 
	C658.364685,423.123260 644.197266,415.011719 631.020752,405.286194 
	C627.827637,402.929382 625.428040,403.272156 622.521362,405.314209 
	C609.655457,414.352692 595.965698,421.936066 581.184509,427.308105 
	C564.753845,433.279633 547.986572,437.604034 530.329041,438.689026 
	C523.071838,439.135010 515.788208,440.300812 508.520569,439.847778 
	C484.019135,438.320374 460.190277,433.794830 437.548798,423.760315 
	C419.253387,415.651886 402.869446,404.748871 387.948761,391.534485 
	C385.562866,389.421478 383.652283,389.122559 381.108429,391.522491 
	C356.696777,414.552673 327.930695,429.645721 295.391571,437.374023 
	C284.286926,440.011444 272.917694,441.797760 260.890533,441.402710 
M507.500000,339.903381 
	C514.662231,339.905640 521.832275,340.123718 528.985168,339.866241 
	C544.996277,339.289886 560.772766,337.313171 575.840576,331.367889 
	C594.032959,324.189789 601.059387,314.012299 601.081604,294.457916 
	C601.087280,289.461151 600.971130,284.462677 601.065796,279.467896 
	C601.289551,267.658295 595.476990,259.382416 585.448669,254.174988 
	C572.443604,247.421738 558.342590,244.335403 543.755310,243.456802 
	C541.934631,243.347137 540.022278,243.687592 539.103149,241.552414 
	C539.468750,240.587677 540.252014,240.337891 541.105713,240.310516 
	C550.588867,240.006119 559.788940,237.996841 568.778198,235.198959 
	C578.765869,232.090347 588.276123,227.906265 593.411682,217.911484 
	C597.530334,209.895782 596.944397,201.073486 596.421875,192.507965 
	C595.934387,184.516403 594.011719,176.737808 588.037842,170.697952 
	C582.669495,165.270309 576.238159,161.578827 569.094116,159.003403 
	C551.032288,152.492065 532.184875,150.982742 513.237183,150.494431 
	C502.427155,150.215851 491.597076,150.839432 480.776276,150.828262 
	C461.304962,150.808167 441.833893,150.547745 422.362579,150.527313 
	C413.740051,150.518280 412.935150,151.479416 412.937317,160.026291 
	C412.951599,216.990677 412.969330,273.955048 412.985260,330.919434 
	C412.987640,339.411072 413.465179,339.981842 422.052948,339.985443 
	C450.201965,339.997253 478.350983,339.937042 507.500000,339.903381 
M277.090546,310.102997 
	C278.418335,310.209045 279.790009,310.583405 281.066376,310.374817 
	C286.696014,309.454773 288.952423,312.477844 290.536560,317.354004 
	C292.435516,323.199036 295.178986,328.764069 297.341522,334.531036 
	C298.818634,338.470276 301.252502,340.134125 305.588318,340.086304 
	C321.745697,339.908051 337.906677,340.089844 354.065796,340.020691 
	C360.562439,339.992889 361.553589,338.381622 358.707764,332.480103 
	C341.933899,297.695679 325.161591,262.910309 308.264343,228.185776 
	C296.682373,204.384247 284.747894,180.753006 273.329010,156.874435 
	C270.991699,151.986755 267.832153,150.312759 262.857056,150.364960 
	C252.529221,150.473312 242.194565,150.595337 231.872925,150.323410 
	C227.416916,150.206009 224.754074,151.770294 222.840591,155.744705 
	C213.958267,174.193848 204.891113,192.553894 195.934036,210.967224 
	C180.064392,243.590881 164.219559,276.226654 148.380127,308.864960 
	C144.384811,317.097626 140.190659,325.248535 136.589737,333.652008 
	C134.641449,338.198761 135.975830,339.858673 140.942566,339.901398 
	C157.600571,340.044769 174.260269,339.974701 190.918961,340.059509 
	C194.779907,340.079163 197.090790,338.319366 198.464508,334.778809 
	C201.053635,328.105713 203.922516,321.540131 206.455383,314.846680 
	C207.613113,311.787201 209.294891,310.595367 212.716705,310.472687 
	C233.869476,309.714386 255.023544,310.162720 277.090546,310.102997 
M820.313416,164.134033 
	C807.296387,156.035339 792.546082,153.102463 777.816833,150.622894 
	C765.375977,148.528549 752.683350,148.674072 740.054443,148.881500 
	C720.942932,149.195419 702.313049,152.149261 684.335083,158.817490 
	C665.551575,165.784454 653.149536,182.269547 653.539185,200.130829 
	C654.204224,230.617065 653.638123,261.106110 653.927917,291.590057 
	C654.013611,300.605499 656.043030,309.470947 662.357239,316.618134 
	C668.645996,323.736542 676.257080,328.924652 685.110535,332.407043 
	C702.090454,339.085907 719.904541,341.236542 737.912231,341.967438 
	C754.043640,342.622223 770.179993,341.962097 786.079590,338.932251 
	C798.715820,336.524292 810.969177,332.885437 821.906555,325.670746 
	C835.201111,316.901154 840.924194,304.394043 840.557617,288.800018 
	C840.409058,282.479248 838.768311,280.954590 832.331177,280.938477 
	C817.665222,280.901764 802.999146,280.921478 788.333069,280.935333 
	C775.156250,280.947784 775.156250,280.957825 774.907532,294.290375 
	C774.771851,301.562988 771.227234,306.433624 764.239868,308.841980 
	C753.557617,312.523743 742.739868,312.453247 731.976929,309.458008 
	C723.658691,307.143097 719.290100,301.854034 719.225952,293.024017 
	C718.996155,261.360992 719.005676,229.694885 719.169861,198.031204 
	C719.213074,189.687164 723.600830,184.346466 731.408875,181.614059 
	C741.694824,178.014526 752.086975,178.383926 762.350769,181.426239 
	C771.344482,184.092133 774.728210,189.003830 774.900024,198.322617 
	C774.940002,200.488419 774.902039,202.661087 775.066162,204.817947 
	C775.343933,208.467056 777.221680,210.811981 781.029297,210.913330 
	C798.517456,211.378845 816.005493,211.843307 833.505371,211.487625 
	C838.299622,211.390182 840.258362,209.177307 840.492249,204.463074 
	C841.334229,187.488953 835.446106,173.927673 820.313416,164.134033 
z"/>
<path fill="#000000" opacity="1.000000" stroke="none" 
	d="
M108.123978,481.357788 
	C108.683914,475.247894 108.355263,469.594452 108.105988,463.941833 
	C107.973289,460.932739 109.017715,459.397430 112.397278,459.353821 
	C135.537430,459.055298 158.682175,458.931580 181.807526,459.691925 
	C193.295685,460.069672 204.631790,461.926453 214.944122,467.704010 
	C222.960510,472.195160 226.944031,478.952789 226.897232,488.101288 
	C226.786453,509.754272 226.888428,531.412170 226.428314,553.057922 
	C226.209702,563.342896 218.592972,568.434814 210.258987,572.058044 
	C201.490219,575.870239 192.060684,576.803833 182.542526,577.460999 
	C160.090698,579.010925 137.627045,578.194092 115.169006,578.377319 
	C108.431725,578.432312 108.358505,578.384644 108.436699,571.753296 
	C108.790245,541.771484 108.553734,511.792358 108.123978,481.357788 
M161.578659,480.930328 
	C151.808456,480.974548 151.384201,481.325989 151.442474,491.000977 
	C151.518646,503.651550 151.918182,516.303345 151.792297,528.950806 
	C151.717758,536.439514 151.406311,543.914246 151.957672,551.399231 
	C152.157684,554.114502 153.085831,555.906372 156.080658,555.903687 
	C161.907440,555.898438 167.757889,556.185791 173.554581,555.757385 
	C179.869675,555.290710 183.523239,551.148499 183.556046,544.813904 
	C183.646606,527.336487 183.626678,509.858002 183.541336,492.380493 
	C183.512619,486.501526 181.077469,483.651672 175.437897,481.905273 
	C171.194550,480.591248 166.859985,481.000732 161.578659,480.930328 
z"/>
<path fill="#000000" opacity="1.000000" stroke="none" 
	d="
M347.960327,459.898926 
	C369.822906,457.428040 391.157471,456.787048 412.072296,463.659119 
	C427.322266,468.669922 434.243988,478.858948 432.963470,494.562531 
	C432.736755,497.343201 431.872467,498.779694 428.730652,498.719147 
	C416.903961,498.491150 405.073059,498.391693 393.244232,498.424377 
	C390.003021,498.433350 388.247894,497.522980 388.119568,494.014679 
	C387.984009,490.307648 389.136322,485.948944 384.973694,483.621613 
	C380.061188,480.875031 374.683960,479.813293 369.076447,480.956177 
	C359.239807,482.961029 356.977020,485.760803 356.902344,495.969452 
	C356.782867,512.299194 356.731781,528.629395 356.632629,544.959290 
	C356.599304,550.447266 359.242401,554.373291 364.748779,555.401306 
	C371.796875,556.717163 378.973389,556.829956 386.029266,555.124390 
	C390.077454,554.145996 392.058197,551.638062 392.153229,547.232361 
	C392.429962,534.400452 392.086975,533.961304 379.187469,534.782715 
	C372.900269,535.183044 372.009766,534.334839 372.164246,527.827332 
	C372.247253,524.331421 372.575958,520.839233 372.590454,517.344543 
	C372.601624,514.646606 373.568848,513.496948 376.427246,513.483032 
	C394.086456,513.397278 411.745941,513.232727 429.403076,512.951660 
	C433.484009,512.886658 434.971802,514.319580 434.811554,518.539307 
	C434.438843,528.354065 434.142395,538.200500 434.511230,548.007874 
	C435.037750,562.008179 427.174835,567.764160 417.939301,572.156433 
	C408.864288,576.472412 398.909424,577.445435 388.951782,578.704651 
	C378.268463,580.055603 367.787048,579.617615 357.240265,578.560486 
	C345.087708,577.342468 333.233093,574.987793 322.903442,567.827148 
	C316.705933,563.531006 313.626373,557.654114 313.383514,550.107605 
	C312.718475,529.446777 313.169952,508.792908 313.600250,488.138306 
	C313.821960,477.497467 321.360718,468.278595 333.626312,463.925842 
	C338.166718,462.314514 342.904877,461.260468 347.960327,459.898926 
z"/>
<path fill="#000000" opacity="1.000000" stroke="none" 
	d="
M689.023315,459.480499 
	C697.739868,459.279816 706.062500,459.265076 714.381714,459.087830 
	C717.742249,459.016235 719.413086,460.744202 720.782166,463.576294 
	C734.687500,492.342102 748.655090,521.077881 762.667664,549.791565 
	C766.462891,557.568481 770.383545,565.287415 774.416809,572.943420 
	C776.294189,576.507080 775.219727,578.065491 771.484192,577.802551 
	C759.837891,576.982788 748.183105,577.489807 736.533447,577.424255 
	C733.828552,577.408997 732.012817,576.633972 731.387146,573.864075 
	C731.350769,573.703125 731.278870,573.549255 731.215149,573.395508 
	C724.447266,557.041138 729.195129,559.690063 710.427124,559.424683 
	C702.435974,559.311707 694.439758,559.496399 686.450562,559.324951 
	C682.625732,559.242859 680.466431,560.519836 678.954468,564.295715 
	C673.700012,577.418518 673.543518,577.363037 659.191895,577.384949 
	C650.103516,577.398804 641.015137,577.387451 631.000244,577.387451 
	C633.530396,571.460754 635.481262,566.233765 637.934143,561.254089 
	C651.680664,533.346069 665.600403,505.523315 679.333740,477.608795 
	C682.318298,471.542297 684.017883,464.827271 689.023315,459.480499 
M707.972168,515.447876 
	C706.357300,512.716492 706.309509,509.042419 702.567627,506.660187 
	C698.062805,517.230835 693.482727,527.333008 690.145142,538.622925 
	C699.598083,539.868835 707.999451,540.362183 716.841248,538.077759 
	C713.815002,530.330444 711.045105,523.239319 707.972168,515.447876 
z"/>
<path fill="#000000" opacity="1.000000" stroke="none" 
	d="
M557.227783,552.225830 
	C557.326355,533.313538 557.778625,514.823120 557.499207,496.343689 
	C557.216370,477.629486 558.154541,481.310303 542.182068,481.016083 
	C536.020874,480.902588 529.851318,480.901245 523.693237,481.093140 
	C519.741455,481.216309 517.752319,479.897827 517.956116,475.661072 
	C518.147827,471.673431 518.060181,467.664154 517.914734,463.670990 
	C517.797302,460.446747 519.301514,459.080475 522.381592,459.112183 
	C523.547424,459.124207 524.713745,459.091064 525.879822,459.090942 
	C561.020447,459.087738 596.161072,459.083954 631.301697,459.090820 
	C632.965881,459.091156 634.631592,459.159424 636.293884,459.246857 
	C638.699829,459.373352 639.848206,460.553925 639.808228,463.082214 
	C639.744995,467.075012 639.743225,471.080444 639.991211,475.063354 
	C640.257141,479.335144 638.581482,481.060638 634.216614,480.954132 
	C625.559021,480.742920 616.892212,480.843689 608.229919,480.908112 
	C601.931946,480.954956 600.920349,481.935211 600.914001,488.167053 
	C600.885925,515.813965 600.831543,543.461365 601.003906,571.107300 
	C601.032837,575.738220 599.868347,577.642517 594.857727,577.505066 
	C583.706360,577.199280 572.536255,577.337891 561.380127,577.584534 
	C557.842346,577.662842 556.937805,576.061218 557.125488,573.109009 
	C557.559021,566.291077 557.621033,559.474060 557.227783,552.225830 
z"/>
<path fill="#000000" opacity="1.000000" stroke="none" 
	d="
M833.549316,461.395203 
	C833.573547,490.605591 833.428467,519.421326 833.447632,548.236938 
	C833.452515,555.617249 834.037720,555.970642 841.591980,555.993164 
	C857.752014,556.041260 873.913025,556.161926 890.071716,556.024597 
	C894.352966,555.988281 896.159180,557.150330 895.569702,561.754211 
	C895.152588,565.011414 895.636902,568.395386 895.826965,571.716614 
	C896.169556,577.702576 895.630493,578.375305 889.702881,578.379822 
	C860.381165,578.402161 831.059509,578.403625 801.737793,578.396606 
	C790.043152,578.393799 790.072388,578.375244 790.078064,566.784180 
	C790.094360,533.797424 790.090393,500.810699 790.080627,467.823944 
	C790.078308,459.921051 790.045044,459.652863 797.633667,459.410034 
	C807.951721,459.079834 818.284424,459.174042 828.610840,459.176483 
	C830.365479,459.176910 832.375977,458.964630 833.549316,461.395203 
z"/>
<path fill="#000000" opacity="1.000000" stroke="none" 
	d="
M455.238708,575.166199 
	C455.241943,539.752258 455.254395,504.756226 455.418762,469.760925 
	C455.469177,459.032501 455.659790,459.037262 466.395081,459.036224 
	C474.728302,459.035431 483.061493,459.024170 491.394714,459.016113 
	C498.876892,459.008881 498.914825,459.075195 498.911682,466.414215 
	C498.896790,501.247223 498.900635,536.080200 498.895813,570.913208 
	C498.894897,577.595886 498.891479,577.499329 492.356232,577.447266 
	C481.523804,577.360962 470.690216,577.423462 459.857208,577.395996 
	C458.129303,577.391602 456.036377,578.156982 455.238708,575.166199 
z"/>
<path fill="#000000" opacity="1.000000" stroke="none" 
	d="
M246.503403,576.015869 
	C246.241669,561.817261 246.064819,548.009277 246.037781,534.200989 
	C245.993469,511.564758 246.033173,488.928345 246.066345,466.292053 
	C246.076599,459.295502 246.233505,459.137482 253.447556,459.093201 
	C263.100952,459.033966 272.754883,459.028992 282.408478,459.052094 
	C289.415588,459.068878 289.496582,459.245544 289.520203,466.305878 
	C289.636597,501.079437 289.784912,535.852905 289.921448,570.626404 
	C289.948700,577.569153 289.948120,577.468628 283.151276,577.436340 
	C272.334442,577.384949 261.516754,577.463989 250.699783,577.539062 
	C249.202911,577.549438 247.678574,577.959534 246.503403,576.015869 
z"/>
<path fill="#000000" opacity="1.000000" stroke="none" 
	d="
M529.860962,261.061890 
	C534.166443,263.739990 536.066406,267.268860 535.989258,272.056976 
	C535.849854,280.709564 535.871338,289.366394 535.953186,298.020294 
	C536.003418,303.340790 533.670227,306.828888 528.699890,308.733917 
	C524.015869,310.529236 519.265930,311.751099 514.208679,311.963623 
	C503.397888,312.417938 492.597961,310.929840 481.792145,311.888672 
	C478.355347,312.193634 477.006989,310.597382 477.051819,307.205688 
	C477.260437,291.412872 477.388245,275.618835 477.483643,259.824829 
	C477.498505,257.361115 478.487488,255.967560 480.976562,256.028931 
	C495.192261,256.379486 509.559998,254.248672 523.536499,258.521332 
	C525.586243,259.147949 527.536499,260.099792 529.860962,261.061890 
z"/>
<path fill="#000000" opacity="1.000000" stroke="none" 
	d="
M477.596252,218.810059 
	C477.599823,207.218140 477.695831,196.064713 477.546326,184.914581 
	C477.495483,181.122070 478.154877,179.168152 482.731323,179.305679 
	C492.039429,179.585327 501.370331,179.269287 510.687225,179.023697 
	C515.472534,178.897537 519.898376,180.228439 524.317261,181.715805 
	C530.123657,183.670166 532.660400,188.123718 532.918152,193.895233 
	C533.170532,199.545639 533.077698,205.215744 533.003052,210.875458 
	C532.897644,218.868912 529.498230,223.539383 522.010620,226.310806 
	C516.136108,228.485229 510.018250,228.874359 503.840057,228.879181 
	C497.179718,228.884369 490.519379,228.907242 483.859039,228.917786 
	C477.115814,228.928482 476.864105,228.640121 477.463562,221.743027 
	C477.535583,220.914490 477.550934,220.081039 477.596252,218.810059 
z"/>
<path fill="#000000" opacity="1.000000" stroke="none" 
	d="
M235.032654,282.418518 
	C230.088455,282.418976 225.637634,282.418976 219.647659,282.418976 
	C228.941605,259.257843 237.856583,237.041092 246.771561,214.824326 
	C247.358261,214.810013 247.944977,214.795715 248.531693,214.781403 
	C258.694122,236.566589 266.500244,259.325684 276.247925,282.418091 
	C261.940887,282.418091 248.733444,282.418091 235.032654,282.418518 
z"/>
</svg>