<svg width="135" height="78" viewBox="0 0 135 78" fill="none" xmlns="http://www.w3.org/2000/svg">
<path d="M35.5044 53.7959C33.7189 53.7587 31.9927 53.8976 30.2818 53.629C25.9431 52.9477 21.9638 51.4917 18.5172 49.0243C13.9693 45.7687 10.9201 41.6002 9.48947 36.5278C8.58364 33.316 8.5242 30.0497 9.15953 26.8078C9.91293 22.9633 11.7214 19.4998 14.4763 16.4699C17.2781 13.3885 20.7853 11.1121 24.9063 9.66365C27.6742 8.69077 30.5621 8.14728 33.5729 8.09895C37.3644 8.03809 41.0038 8.59113 44.4858 9.92458C46.9389 10.864 49.1791 12.1221 51.1807 13.7076C51.8304 14.2222 51.9673 14.2416 52.6009 13.742C55.5666 11.4034 58.8966 9.63674 62.7101 8.66256C64.7142 8.1506 66.7637 7.8748 68.8564 7.78555C71.3637 7.67862 73.819 7.92652 76.2414 8.4506C78.8815 9.02182 81.3407 9.99463 83.6264 11.3129C84.1029 11.5877 84.6195 11.8207 85.0453 12.1483C85.5567 12.5419 85.974 12.4943 86.4932 12.1703C89.2212 10.4675 92.22 9.30261 95.4533 8.61534C98.3502 7.99957 101.287 7.88045 104.228 8.19938C109.228 8.74178 113.679 10.4954 117.568 13.3538C120.042 15.1722 122.014 17.3695 123.566 19.8859C125.041 22.277 125.996 24.8122 126.456 27.5021C126.782 29.4076 126.882 31.3206 126.639 33.2446C126.101 37.5043 124.498 41.3898 121.584 44.8114C117.672 49.4045 112.559 52.329 106.222 53.4172C101.277 54.2665 96.3933 53.9626 91.6712 52.2991C89.5961 51.5681 87.6681 50.5795 85.8749 49.3942C85.4403 49.107 85.1138 49.1487 84.7182 49.3976C82.9673 50.4992 81.1043 51.4234 79.0927 52.0781C76.8567 52.8059 74.5749 53.3329 72.1719 53.4652C71.1843 53.5195 70.1931 53.6616 69.204 53.6064C65.8696 53.4202 62.6268 52.8687 59.5455 51.6457C57.0558 50.6575 54.8261 49.3287 52.7955 47.7182C52.4709 47.4607 52.2108 47.4242 51.8647 47.7167C48.5425 50.5235 44.6278 52.363 40.1996 53.3049C38.6883 53.6263 37.1411 53.844 35.5044 53.7959ZM69.0651 41.4257C70.0398 41.4259 71.0156 41.4525 71.989 41.4211C74.1679 41.3509 76.3149 41.11 78.3655 40.3854C80.8413 39.5106 81.7975 38.2702 81.8005 35.887C81.8013 35.278 81.7855 34.6688 81.7984 34.0601C81.8288 32.6208 81.0378 31.6122 79.673 30.9775C77.9032 30.1545 75.9842 29.7783 73.9991 29.6712C73.7513 29.6579 73.491 29.6994 73.366 29.4391C73.4157 29.3216 73.5223 29.2911 73.6385 29.2878C74.929 29.2507 76.1811 29.0058 77.4044 28.6648C78.7636 28.286 80.0578 27.776 80.7567 26.5579C81.3172 25.581 81.2375 24.5058 81.1664 23.4618C81.1 22.4879 80.8384 21.5399 80.0254 20.8038C79.2948 20.1423 78.4196 19.6924 77.4474 19.3785C74.9894 18.5849 72.4245 18.401 69.8459 18.3414C68.3748 18.3075 66.9009 18.3835 65.4283 18.3821C62.7785 18.3797 60.1287 18.3479 57.4789 18.3455C56.3054 18.3444 56.1959 18.4615 56.1962 19.5031C56.1981 26.4457 56.2006 33.3882 56.2027 40.3307C56.2031 41.3657 56.268 41.4352 57.4367 41.4357C61.2675 41.4371 65.0983 41.4298 69.0651 41.4257ZM37.709 37.7937C37.8897 37.8067 38.0764 37.8523 38.2501 37.8269C39.0162 37.7147 39.3233 38.0832 39.5388 38.6775C39.7973 39.3898 40.1706 40.0681 40.4649 40.7709C40.6659 41.251 40.9972 41.4538 41.5872 41.448C43.7861 41.4262 45.9854 41.4484 48.1845 41.44C49.0686 41.4366 49.2035 41.2402 48.8162 40.521C46.5334 36.2816 44.2509 32.0421 41.9514 27.8101C40.3752 24.9093 38.7511 22.0292 37.1971 19.119C36.879 18.5233 36.449 18.3193 35.772 18.3257C34.3665 18.3389 32.96 18.3537 31.5554 18.3206C30.949 18.3063 30.5866 18.4969 30.3262 18.9813C29.1174 21.2298 27.8835 23.4674 26.6645 25.7116C24.5048 29.6876 22.3485 33.6651 20.193 37.6429C19.6492 38.6462 19.0785 39.6396 18.5884 40.6638C18.3233 41.2179 18.5049 41.4202 19.1808 41.4254C21.4478 41.4429 23.7149 41.4344 25.982 41.4447C26.5074 41.4471 26.8219 41.2326 27.0089 40.8011C27.3612 39.9878 27.7516 39.1876 28.0963 38.3719C28.2539 37.999 28.4828 37.8537 28.9484 37.8388C31.8271 37.7464 34.7059 37.801 37.709 37.7937ZM111.635 20.0038C109.864 19.0167 107.857 18.6593 105.852 18.3571C104.159 18.1019 102.432 18.1196 100.713 18.1449C98.1123 18.1831 95.577 18.5431 93.1304 19.3558C90.5741 20.2049 88.8864 22.214 88.9394 24.3909C89.0299 28.1064 88.9529 31.8222 88.9923 35.5375C89.004 36.6362 89.2801 37.7167 90.1394 38.5878C90.9953 39.4553 92.031 40.0876 93.2359 40.512C95.5467 41.326 97.971 41.5881 100.422 41.6772C102.617 41.757 104.813 41.6766 106.977 41.3073C108.696 41.0138 110.364 40.5704 111.852 39.6911C113.662 38.6223 114.44 37.098 114.39 35.1974C114.37 34.4271 114.147 34.2413 113.271 34.2393C111.275 34.2348 109.279 34.2372 107.283 34.2389C105.49 34.2405 105.49 34.2417 105.456 35.8666C105.438 36.7529 104.955 37.3465 104.005 37.6401C102.551 38.0888 101.079 38.0802 99.6139 37.7151C98.4819 37.433 97.8874 36.7884 97.8786 35.7122C97.8474 31.8533 97.8486 27.994 97.871 24.135C97.8769 23.1181 98.474 22.4672 99.5366 22.1342C100.936 21.6955 102.351 21.7405 103.747 22.1113C104.971 22.4362 105.432 23.0348 105.455 24.1705C105.461 24.4345 105.456 24.6993 105.478 24.9621C105.516 25.4069 105.771 25.6927 106.289 25.705C108.669 25.7617 111.049 25.8183 113.431 25.775C114.083 25.7631 114.35 25.4934 114.382 24.9189C114.496 22.8502 113.695 21.1974 111.635 20.0038Z" fill="#FDFDFD"/>
<path d="M14.7144 58.6655C14.7906 57.9208 14.7459 57.2318 14.7119 56.5429C14.6939 56.1762 14.836 55.9891 15.2959 55.9837C18.4451 55.9474 21.5948 55.9323 24.7419 56.0249C26.3053 56.071 27.848 56.2973 29.2514 57.0014C30.3424 57.5488 30.8845 58.3724 30.8781 59.4873C30.863 62.1263 30.8769 64.7659 30.8143 67.4039C30.7845 68.6574 29.748 69.278 28.6138 69.7196C27.4205 70.1842 26.1372 70.298 24.8419 70.3781C21.7865 70.567 18.7294 70.4674 15.6731 70.4897C14.7563 70.4964 14.7463 70.4906 14.757 69.6824C14.8051 66.0284 14.7729 62.3747 14.7144 58.6655ZM21.989 58.6134C20.6594 58.6188 20.6016 58.6616 20.6096 59.8407C20.6199 61.3825 20.6743 62.9245 20.6572 64.4659C20.647 65.3786 20.6046 66.2895 20.6797 67.2018C20.7069 67.5327 20.8332 67.7511 21.2408 67.7508C22.0337 67.7501 22.8299 67.7851 23.6188 67.7329C24.4782 67.6761 24.9754 67.1712 24.9798 66.3992C24.9922 64.2691 24.9895 62.1389 24.9778 60.0089C24.9739 59.2924 24.6425 58.945 23.8751 58.7322C23.2976 58.5721 22.7077 58.622 21.989 58.6134Z" fill="#FDFDFD"/>
<path d="M47.3535 56.0502C50.3287 55.749 53.2321 55.6709 56.0784 56.5084C58.1537 57.1191 59.0957 58.3609 58.9214 60.2748C58.8906 60.6137 58.773 60.7888 58.3454 60.7814C56.7359 60.7536 55.1259 60.7415 53.5161 60.7455C53.075 60.7465 52.8361 60.6356 52.8187 60.208C52.8002 59.7562 52.9571 59.225 52.3906 58.9414C51.722 58.6066 50.9903 58.4772 50.2271 58.6165C48.8885 58.8609 48.5805 59.2021 48.5704 60.4463C48.5541 62.4364 48.5472 64.4267 48.5337 66.4169C48.5291 67.0857 48.8888 67.5642 49.6382 67.6895C50.5974 67.8499 51.574 67.8636 52.5342 67.6558C53.0851 67.5365 53.3547 67.2309 53.3676 66.6939C53.4053 65.13 53.3586 65.0765 51.6031 65.1766C50.7475 65.2254 50.6263 65.122 50.6473 64.3289C50.6586 63.9029 50.7034 63.4773 50.7053 63.0514C50.7069 62.7225 50.8385 62.5824 51.2275 62.5807C53.6307 62.5703 56.034 62.5502 58.4369 62.516C58.9923 62.508 59.1947 62.6827 59.1729 63.197C59.1222 64.3931 59.0819 65.5932 59.1321 66.7884C59.2037 68.4947 58.1337 69.1962 56.8768 69.7316C55.6418 70.2576 54.2871 70.3761 52.9319 70.5296C51.4781 70.6943 50.0517 70.6409 48.6164 70.512C46.9625 70.3636 45.3493 70.0766 43.9435 69.2039C43.1001 68.6803 42.681 67.9641 42.648 67.0443C42.5574 64.5263 42.6189 62.0091 42.6774 59.4918C42.7076 58.195 43.7336 57.0714 45.4028 56.5409C46.0207 56.3446 46.6655 56.2161 47.3535 56.0502Z" fill="#FDFDFD"/>
<path d="M93.7684 55.9992C94.9546 55.9747 96.0872 55.9729 97.2193 55.9513C97.6767 55.9426 97.9041 56.1532 98.0904 56.4983C99.9827 60.0042 101.884 63.5063 103.791 67.0058C104.307 67.9536 104.841 68.8944 105.389 69.8275C105.645 70.2618 105.499 70.4517 104.99 70.4197C103.405 70.3198 101.819 70.3816 100.234 70.3736C99.8658 70.3717 99.6187 70.2772 99.5336 69.9397C99.5286 69.9201 99.5189 69.9013 99.5102 69.8826C98.5892 67.8894 99.2353 68.2122 96.6812 68.1799C95.5937 68.1661 94.5055 68.1886 93.4182 68.1677C92.8977 68.1577 92.6039 68.3133 92.3981 68.7735C91.683 70.3729 91.6617 70.3661 89.7086 70.3688C88.4718 70.3705 87.235 70.3691 85.8721 70.3691C86.2164 69.6468 86.4819 69.0097 86.8157 68.4028C88.6864 65.0015 90.5808 61.6106 92.4497 58.2086C92.8559 57.4692 93.0872 56.6508 93.7684 55.9992ZM96.3471 62.8202C96.1273 62.4873 96.1208 62.0395 95.6116 61.7492C94.9985 63.0375 94.3752 64.2687 93.921 65.6447C95.2075 65.7965 96.3508 65.8566 97.5541 65.5782C97.1422 64.634 96.7653 63.7698 96.3471 62.8202Z" fill="#FDFDFD"/>
<path d="M75.8324 67.3025C75.8458 64.9975 75.9073 62.744 75.8693 60.4918C75.8308 58.211 75.9585 58.6596 73.7848 58.6238C72.9464 58.61 72.1067 58.6098 71.2687 58.6332C70.7309 58.6482 70.4602 58.4875 70.4879 57.9711C70.514 57.4851 70.5021 56.9965 70.4823 56.5098C70.4663 56.1169 70.671 55.9504 71.0902 55.9542C71.2489 55.9557 71.4076 55.9517 71.5663 55.9517C76.3485 55.9513 81.1308 55.9508 85.913 55.9516C86.1395 55.9517 86.3662 55.96 86.5924 55.9707C86.9198 55.9861 87.0761 56.13 87.0706 56.4381C87.062 56.9247 87.0618 57.4129 87.0955 57.8983C87.1317 58.4189 86.9037 58.6292 86.3097 58.6162C85.1315 58.5905 83.952 58.6028 82.7732 58.6106C81.9161 58.6163 81.7784 58.7358 81.7776 59.4953C81.7738 62.8648 81.7664 66.2343 81.7898 69.6036C81.7937 70.168 81.6353 70.4001 80.9534 70.3834C79.4358 70.3461 77.9157 70.363 76.3975 70.3931C75.916 70.4026 75.7929 70.2074 75.8185 69.8476C75.8775 69.0167 75.8859 68.1858 75.8324 67.3025Z" fill="#FDFDFD"/>
<path d="M113.437 56.2326C113.44 59.7926 113.42 63.3045 113.423 66.8164C113.424 67.7159 113.503 67.759 114.531 67.7617C116.73 67.7676 118.93 67.7823 121.129 67.7656C121.711 67.7611 121.957 67.9027 121.877 68.4638C121.82 68.8608 121.886 69.2732 121.912 69.678C121.959 70.4076 121.885 70.4895 121.079 70.4901C117.088 70.4928 113.098 70.493 109.108 70.4921C107.516 70.4918 107.52 70.4895 107.521 69.0769C107.523 65.0566 107.522 61.0364 107.521 57.0161C107.521 56.0529 107.516 56.0202 108.549 55.9907C109.953 55.9504 111.359 55.9619 112.765 55.9622C113.003 55.9622 113.277 55.9364 113.437 56.2326Z" fill="#FDFDFD"/>
<path d="M61.9529 70.0983C61.9533 65.7823 61.955 61.5171 61.9774 57.2521C61.9842 55.9445 62.0102 55.9451 63.4711 55.945C64.6052 55.9449 65.7392 55.9435 66.8733 55.9425C67.8915 55.9417 67.8967 55.9497 67.8963 56.8442C67.8943 61.0895 67.8948 65.3347 67.8941 69.58C67.894 70.3945 67.8935 70.3827 67.0042 70.3763C65.53 70.3658 64.0557 70.3734 62.5814 70.3701C62.3463 70.3696 62.0614 70.4628 61.9529 70.0983Z" fill="#FDFDFD"/>
<path d="M33.5463 70.202C33.5107 68.4715 33.4866 66.7887 33.4829 65.1058C33.4769 62.347 33.4823 59.5882 33.4868 56.8294C33.4882 55.9767 33.5095 55.9574 34.4913 55.952C35.805 55.9448 37.1188 55.9442 38.4325 55.947C39.3861 55.949 39.3972 55.9706 39.4004 56.8311C39.4162 61.0691 39.4364 65.3071 39.455 69.5451C39.4587 70.3913 39.4586 70.379 38.5336 70.3751C37.0616 70.3688 35.5894 70.3784 34.1174 70.3876C33.9136 70.3889 33.7062 70.4388 33.5463 70.202Z" fill="#FDFDFD"/>
<path d="M72.108 31.8169C72.6939 32.1433 72.9525 32.5734 72.942 33.157C72.923 34.2115 72.926 35.2666 72.9371 36.3212C72.9439 36.9697 72.6264 37.3948 71.95 37.627C71.3126 37.8458 70.6662 37.9947 69.9779 38.0206C68.5067 38.076 67.0369 37.8946 65.5664 38.0115C65.0987 38.0486 64.9152 37.8541 64.9213 37.4407C64.9497 35.516 64.9671 33.5911 64.9801 31.6662C64.9821 31.3659 65.1167 31.1961 65.4554 31.2035C67.39 31.2463 69.3453 30.9866 71.2473 31.5073C71.5263 31.5837 71.7917 31.6997 72.108 31.8169Z" fill="#FDFDFD"/>
<path d="M64.9955 26.6675C64.996 25.2547 65.0091 23.8954 64.9887 22.5365C64.9818 22.0743 65.0715 21.8361 65.6943 21.8529C66.9611 21.887 68.2309 21.8484 69.4988 21.8185C70.15 21.8031 70.7523 21.9653 71.3537 22.1466C72.1439 22.3848 72.4891 22.9276 72.5242 23.631C72.5585 24.3196 72.5459 25.0107 72.5357 25.7004C72.5214 26.6747 72.0588 27.2439 71.0398 27.5816C70.2403 27.8466 69.4078 27.8941 68.567 27.8947C67.6606 27.8953 66.7542 27.8981 65.8478 27.8994C64.9301 27.9007 64.8959 27.8655 64.9775 27.0249C64.9873 26.924 64.9893 26.8224 64.9955 26.6675Z" fill="#FDFDFD"/>
<path d="M31.9853 34.4198C31.3125 34.4198 30.7068 34.4198 29.8916 34.4198C31.1564 31.5971 32.3696 28.8894 33.5829 26.1817C33.6627 26.18 33.7425 26.1783 33.8224 26.1765C35.2054 28.8316 36.2677 31.6053 37.5943 34.4197C35.6472 34.4197 33.8498 34.4197 31.9853 34.4198Z" fill="#FDFDFD"/>
</svg>
